<svg xmlns="http://www.w3.org/2000/svg" xmlns:xlink="http://www.w3.org/1999/xlink" width="2000" zoomAndPan="magnify" viewBox="0 0 1500 1499.999933" height="2000" preserveAspectRatio="xMidYMid meet" version="1.0"><defs><g/><clipPath id="4e229476cc"><rect x="0" width="505" y="0" height="223"/></clipPath><clipPath id="611f2ad753"><rect x="0" width="934" y="0" height="641"/></clipPath></defs><g transform="matrix(1, 0, 0, 1, 450, 423)"><g clip-path="url(#4e229476cc)"><g fill="#cfddff" fill-opacity="1"><g transform="translate(1.605215, 167.516112)"><g><path d="M 43.546875 0 L 5.40625 0 C 7.601562 -3.769531 9.015625 -7.578125 9.640625 -11.421875 C 10.273438 -15.265625 10.59375 -21.109375 10.59375 -28.953125 L 10.59375 -134.625 C 10.59375 -142.46875 10.273438 -148.507812 9.640625 -152.75 C 9.015625 -156.988281 7.601562 -160.988281 5.40625 -164.75 L 51.078125 -164.75 C 58.453125 -164.75 65.078125 -163.804688 70.953125 -161.921875 C 76.835938 -160.046875 81.546875 -156.867188 85.078125 -152.390625 C 88.609375 -147.921875 90.375 -141.609375 90.375 -133.453125 C 90.375 -125.765625 88.609375 -118.78125 85.078125 -112.5 C 81.546875 -106.226562 77.226562 -100.421875 72.125 -95.078125 C 67.03125 -89.742188 61.894531 -84.765625 56.71875 -80.140625 C 51.539062 -75.515625 47.1875 -71.039062 43.65625 -66.71875 C 40.125 -62.40625 38.359375 -57.972656 38.359375 -53.421875 L 38.359375 -28.953125 C 38.359375 -21.109375 38.671875 -15.265625 39.296875 -11.421875 C 39.929688 -7.578125 41.347656 -3.769531 43.546875 0 Z M 38.359375 -156.28125 L 38.359375 -73.671875 C 42.128906 -80.097656 45.859375 -86.6875 49.546875 -93.4375 C 53.234375 -100.1875 56.289062 -107.007812 58.71875 -113.90625 C 61.15625 -120.8125 62.375 -127.40625 62.375 -133.6875 C 62.375 -139.332031 61.15625 -144.507812 58.71875 -149.21875 C 56.289062 -153.925781 52.332031 -156.28125 46.84375 -156.28125 Z M 38.359375 -156.28125 "/></g></g></g><g fill="#cfddff" fill-opacity="1"><g transform="translate(91.982063, 167.516112)"><g><path d="M 55.078125 1.640625 C 45.347656 1.640625 36.988281 -1.847656 30 -8.828125 C 23.019531 -15.804688 17.6875 -25.570312 14 -38.125 C 10.3125 -50.675781 8.46875 -65.347656 8.46875 -82.140625 C 8.46875 -98.929688 10.3125 -113.640625 14 -126.265625 C 17.6875 -138.898438 23.019531 -148.707031 30 -155.6875 C 36.988281 -162.664062 45.347656 -166.15625 55.078125 -166.15625 C 64.960938 -166.15625 73.351562 -162.664062 80.25 -155.6875 C 87.15625 -148.707031 92.453125 -138.898438 96.140625 -126.265625 C 99.828125 -113.640625 101.671875 -98.929688 101.671875 -82.140625 C 101.671875 -65.347656 99.828125 -50.675781 96.140625 -38.125 C 92.453125 -25.570312 87.15625 -15.804688 80.25 -8.828125 C 73.351562 -1.847656 64.960938 1.640625 55.078125 1.640625 Z M 37.1875 -82.140625 C 37.1875 -58.441406 38.398438 -40.039062 40.828125 -26.9375 C 43.265625 -13.84375 48.09375 -7.296875 55.3125 -7.296875 C 62.6875 -7.296875 67.507812 -13.84375 69.78125 -26.9375 C 72.0625 -40.039062 73.203125 -58.441406 73.203125 -82.140625 C 73.203125 -105.992188 72.0625 -124.46875 69.78125 -137.5625 C 67.507812 -150.664062 62.6875 -157.21875 55.3125 -157.21875 C 48.09375 -157.21875 43.265625 -150.664062 40.828125 -137.5625 C 38.398438 -124.46875 37.1875 -105.992188 37.1875 -82.140625 Z M 37.1875 -82.140625 "/></g></g></g><g fill="#cfddff" fill-opacity="1"><g transform="translate(196.009567, 167.516112)"><g><path d="M 10.828125 -136.03125 C 10.828125 -143.882812 10.507812 -149.691406 9.875 -153.453125 C 9.25 -157.222656 7.84375 -160.988281 5.65625 -164.75 L 84.96875 -164.75 L 84.96875 -111.5625 L 82.140625 -111.5625 C 82.140625 -119.71875 80.921875 -127.171875 78.484375 -133.921875 C 76.054688 -140.671875 72.289062 -146.082031 67.1875 -150.15625 C 62.09375 -154.238281 55.546875 -156.28125 47.546875 -156.28125 L 38.59375 -156.28125 L 38.59375 -97.4375 L 42.59375 -97.4375 C 45.894531 -97.4375 49.347656 -98.457031 52.953125 -100.5 C 56.566406 -102.539062 59.628906 -105.753906 62.140625 -110.140625 C 64.648438 -114.535156 65.90625 -120.1875 65.90625 -127.09375 L 68.71875 -127.09375 L 68.71875 -59.546875 L 65.90625 -59.546875 C 65.90625 -66.609375 64.648438 -72.296875 62.140625 -76.609375 C 59.628906 -80.921875 56.566406 -84.097656 52.953125 -86.140625 C 49.347656 -88.179688 45.894531 -89.203125 42.59375 -89.203125 L 38.59375 -89.203125 L 38.59375 -8.46875 C 49.582031 -8.15625 57.9375 -9.488281 63.65625 -12.46875 C 69.382812 -15.457031 73.539062 -20.320312 76.125 -27.0625 C 78.71875 -33.8125 80.722656 -42.519531 82.140625 -53.1875 L 84.96875 -53.1875 L 84.96875 0 L 5.65625 0 C 7.84375 -3.769531 9.25 -7.535156 9.875 -11.296875 C 10.507812 -15.066406 10.828125 -20.875 10.828125 -28.71875 Z M 10.828125 -136.03125 "/></g></g></g><g fill="#cfddff" fill-opacity="1"><g transform="translate(282.620707, 167.516112)"><g><path d="M 3.765625 -111.5625 L 3.765625 -164.75 L 88.03125 -164.75 L 88.03125 -111.5625 L 85.203125 -111.5625 C 85.203125 -119.71875 84.414062 -127.25 82.84375 -134.15625 C 81.28125 -141.0625 78.847656 -146.671875 75.546875 -150.984375 C 72.253906 -155.296875 68.097656 -157.453125 63.078125 -157.453125 L 59.78125 -157.6875 L 59.78125 -28.953125 C 59.78125 -21.109375 60.09375 -15.265625 60.71875 -11.421875 C 61.351562 -7.578125 62.765625 -3.769531 64.953125 0 L 26.828125 0 C 29.023438 -3.769531 30.4375 -7.578125 31.0625 -11.421875 C 31.695312 -15.265625 32.015625 -21.109375 32.015625 -28.953125 L 32.015625 -157.6875 L 28.484375 -157.453125 C 23.460938 -157.453125 19.300781 -155.296875 16 -150.984375 C 12.707031 -146.671875 10.273438 -141.0625 8.703125 -134.15625 C 7.140625 -127.25 6.359375 -119.71875 6.359375 -111.5625 Z M 3.765625 -111.5625 "/></g></g></g><g fill="#cfddff" fill-opacity="1"><g transform="translate(368.290435, 167.516112)"><g><path d="M 5.40625 0 C 7.601562 -3.769531 9.015625 -7.578125 9.640625 -11.421875 C 10.273438 -15.265625 10.59375 -21.109375 10.59375 -28.953125 L 10.59375 -136.03125 C 10.59375 -143.882812 10.273438 -149.691406 9.640625 -153.453125 C 9.015625 -157.222656 7.601562 -160.988281 5.40625 -164.75 L 43.546875 -164.75 C 42.128906 -162.238281 41.023438 -159.804688 40.234375 -157.453125 C 39.453125 -155.097656 38.941406 -152.273438 38.703125 -148.984375 C 38.472656 -145.691406 38.359375 -141.375 38.359375 -136.03125 L 38.359375 -28.953125 C 38.359375 -21.109375 38.671875 -15.265625 39.296875 -11.421875 C 39.929688 -7.578125 41.347656 -3.769531 43.546875 0 Z M 5.40625 0 "/></g></g></g><g fill="#cfddff" fill-opacity="1"><g transform="translate(411.125314, 167.516112)"><g><path d="M 8.46875 -82.84375 C 8.46875 -99.789062 10.585938 -114.5 14.828125 -126.96875 C 19.066406 -139.445312 25.066406 -149.097656 32.828125 -155.921875 C 40.597656 -162.742188 49.660156 -166.15625 60.015625 -166.15625 C 63.148438 -166.15625 65.582031 -166.035156 67.3125 -165.796875 C 69.039062 -165.566406 71.316406 -165.453125 74.140625 -165.453125 C 77.585938 -165.453125 79.976562 -165.488281 81.3125 -165.5625 C 82.644531 -165.644531 84.410156 -165.84375 86.609375 -166.15625 L 86.609375 -111.5625 L 83.78125 -111.5625 C 83.78125 -118.625 83.035156 -125.722656 81.546875 -132.859375 C 80.054688 -139.992188 77.898438 -145.914062 75.078125 -150.625 C 72.253906 -155.332031 68.800781 -157.6875 64.71875 -157.6875 C 58.757812 -157.6875 53.738281 -154.234375 49.65625 -147.328125 C 45.582031 -140.429688 42.484375 -131.296875 40.359375 -119.921875 C 38.242188 -108.546875 37.1875 -96.03125 37.1875 -82.375 C 37.1875 -72.957031 37.539062 -63.738281 38.25 -54.71875 C 38.957031 -45.695312 40.171875 -37.578125 41.890625 -30.359375 C 43.617188 -23.140625 46.128906 -17.375 49.421875 -13.0625 C 52.722656 -8.75 56.960938 -6.59375 62.140625 -6.59375 C 69.035156 -6.59375 74.285156 -9.453125 77.890625 -15.171875 C 81.503906 -20.898438 83.703125 -28.507812 84.484375 -38 C 85.273438 -47.5 84.726562 -57.976562 82.84375 -69.4375 L 91.078125 -69.4375 C 91.078125 -63.9375 91 -57.96875 90.84375 -51.53125 C 90.6875 -45.101562 90.175781 -38.75 89.3125 -32.46875 C 88.457031 -26.195312 86.96875 -20.472656 84.84375 -15.296875 C 82.726562 -10.117188 79.707031 -6 75.78125 -2.9375 C 71.863281 0.113281 66.84375 1.640625 60.71875 1.640625 C 50.050781 1.640625 40.796875 -1.769531 32.953125 -8.59375 C 25.109375 -15.414062 19.066406 -25.140625 14.828125 -37.765625 C 10.585938 -50.398438 8.46875 -65.425781 8.46875 -82.84375 Z M 8.46875 -82.84375 "/></g></g></g></g></g><g transform="matrix(1, 0, 0, 1, 204, 236)"><g clip-path="url(#611f2ad753)"><g fill="#3d1900" fill-opacity="1"><g transform="translate(423.131641, 422.470985)"><g><path d="M 63.4375 -87.03125 L 70.21875 -89.734375 C 76 -91.722656 80.289062 -91.539062 83.09375 -89.1875 C 85.894531 -86.84375 86.300781 -82.507812 84.3125 -76.1875 C 83.59375 -73.65625 82.375 -70.804688 80.65625 -67.640625 C 78.9375 -64.472656 76.90625 -61.082031 74.5625 -57.46875 C 72.03125 -53.675781 69 -49.742188 65.46875 -45.671875 C 61.945312 -41.609375 58.289062 -37.679688 54.5 -33.890625 C 51.601562 -30.992188 47.804688 -27.648438 43.109375 -23.859375 C 38.410156 -20.066406 33.300781 -16.316406 27.78125 -12.609375 C 22.269531 -8.898438 16.800781 -5.734375 11.375 -3.109375 C 5.957031 -0.492188 0.898438 1.171875 -3.796875 1.890625 C -8.492188 2.617188 -12.289062 1.898438 -15.1875 -0.265625 C -17.894531 -2.253906 -17.53125 -6.503906 -14.09375 -13.015625 C -11.5625 -17.710938 -8.21875 -22.59375 -4.0625 -27.65625 C -10.207031 -21.144531 -16.082031 -15 -21.6875 -9.21875 C -27.289062 -3.4375 -32.441406 1.710938 -37.140625 6.234375 C -53.222656 21.773438 -70.4375 38.039062 -88.78125 55.03125 C -107.132812 72.019531 -126.429688 88.46875 -146.671875 104.375 C -166.910156 120.28125 -187.921875 134.738281 -209.703125 147.75 C -231.484375 160.769531 -253.847656 171.253906 -276.796875 179.203125 C -299.753906 187.148438 -323.070312 191.488281 -346.75 192.21875 C -363.914062 192.757812 -377.96875 190.546875 -388.90625 185.578125 C -399.84375 180.609375 -407.796875 173.921875 -412.765625 165.515625 C -417.734375 157.109375 -419.898438 147.890625 -419.265625 137.859375 C -418.640625 127.828125 -415.34375 117.796875 -409.375 107.765625 C -403.40625 97.734375 -395 88.648438 -384.15625 80.515625 C -373.3125 72.378906 -360.117188 66.097656 -344.578125 61.671875 C -329.035156 57.242188 -311.320312 55.664062 -291.4375 56.9375 L -290.359375 57.75 C -309.878906 56.476562 -327.363281 58.007812 -342.8125 62.34375 C -358.269531 66.6875 -371.421875 72.832031 -382.265625 80.78125 C -393.109375 88.738281 -401.507812 97.640625 -407.46875 107.484375 C -413.4375 117.335938 -416.828125 127.28125 -417.640625 137.3125 C -418.453125 147.34375 -416.414062 156.515625 -411.53125 164.828125 C -406.65625 173.148438 -398.882812 179.75 -388.21875 184.625 C -377.5625 189.507812 -363.738281 191.675781 -346.75 191.125 C -325.425781 190.40625 -304.234375 186.203125 -283.171875 178.515625 C -262.117188 170.835938 -241.289062 160.535156 -220.6875 147.609375 C -200.082031 134.691406 -179.789062 120.097656 -159.8125 103.828125 C -139.84375 87.566406 -120.234375 70.535156 -100.984375 52.734375 C -81.734375 34.929688 -63.070312 17.265625 -45 -0.265625 C -38.5 -6.597656 -30.816406 -14.28125 -21.953125 -23.3125 C -13.097656 -32.351562 -3.476562 -41.929688 6.90625 -52.046875 C 17.300781 -62.171875 28.191406 -71.929688 39.578125 -81.328125 C 50.960938 -90.734375 62.53125 -99.050781 74.28125 -106.28125 C 86.03125 -113.507812 97.644531 -118.835938 109.125 -122.265625 C 120.601562 -125.703125 131.582031 -126.242188 142.0625 -123.890625 L 141.25 -123.625 C 132.207031 -125.613281 122.804688 -125.070312 113.046875 -122 C 103.285156 -118.925781 93.34375 -114.132812 83.21875 -107.625 C 73.101562 -101.125 63.03125 -93.441406 53 -84.578125 C 42.96875 -75.722656 33.164062 -66.507812 23.59375 -56.9375 C 29.550781 -62.539062 36.050781 -68.097656 43.09375 -73.609375 C 50.144531 -79.117188 56.925781 -83.59375 63.4375 -87.03125 Z M -14.375 -1.078125 C -12.382812 0.359375 -9.21875 0.175781 -4.875 -1.625 C -0.539062 -3.4375 4.242188 -6.191406 9.484375 -9.890625 C 14.722656 -13.597656 19.960938 -17.578125 25.203125 -21.828125 C 30.453125 -26.078125 35.019531 -30.007812 38.90625 -33.625 C 42.789062 -37.238281 45.457031 -39.765625 46.90625 -41.203125 C 51.96875 -45.898438 57.070312 -51.097656 62.21875 -56.796875 C 67.375 -62.492188 71.664062 -68.234375 75.09375 -74.015625 C 76.175781 -75.816406 77.210938 -77.984375 78.203125 -80.515625 C 79.203125 -83.046875 79.519531 -85.257812 79.15625 -87.15625 C 78.800781 -89.0625 76.90625 -89.738281 73.46875 -89.1875 C 70.582031 -88.832031 67.507812 -87.75 64.25 -85.9375 C 56.476562 -81.96875 48.476562 -76.640625 40.25 -69.953125 C 32.03125 -63.265625 24.757812 -56.847656 18.4375 -50.703125 C 15.1875 -47.628906 11.523438 -43.921875 7.453125 -39.578125 C 3.390625 -35.242188 -0.492188 -30.726562 -4.203125 -26.03125 C -7.910156 -21.332031 -10.847656 -16.898438 -13.015625 -12.734375 C -15.898438 -6.773438 -16.351562 -2.890625 -14.375 -1.078125 Z M -14.375 -1.078125 "/></g></g></g><g fill="#3d1900" fill-opacity="1"><g transform="translate(503.921837, 422.470985)"><g><path d="M 79.4375 -45.28125 L 80.25 -44.1875 C 72.113281 -36.957031 65.242188 -31.941406 59.640625 -29.140625 C 54.035156 -26.335938 49.609375 -25.03125 46.359375 -25.21875 C 43.285156 -25.21875 41.117188 -26.300781 39.859375 -28.46875 L 39.046875 -30.640625 C 33.253906 -25.941406 27.015625 -21.332031 20.328125 -16.8125 C 13.640625 -12.289062 7.40625 -8.765625 1.625 -6.234375 C 0.363281 -5.691406 -0.851562 -5.238281 -2.03125 -4.875 C -3.207031 -4.519531 -4.335938 -4.25 -5.421875 -4.0625 C -11.390625 -2.257812 -15.679688 -2.578125 -18.296875 -5.015625 C -20.921875 -7.453125 -21.148438 -11.742188 -18.984375 -17.890625 C -16.804688 -23.492188 -13.097656 -29.550781 -7.859375 -36.0625 C -4.972656 -39.675781 -1.722656 -43.425781 1.890625 -47.3125 C 5.503906 -51.195312 9.394531 -54.945312 13.5625 -58.5625 C 16.632812 -61.269531 20.609375 -64.382812 25.484375 -67.90625 C 30.359375 -71.4375 35.644531 -74.875 41.34375 -78.21875 C 47.039062 -81.5625 52.6875 -84.40625 58.28125 -86.75 C 63.882812 -89.101562 69.035156 -90.503906 73.734375 -90.953125 C 78.441406 -91.410156 82.238281 -90.460938 85.125 -88.109375 C 87.65625 -85.941406 87.023438 -81.695312 83.234375 -75.375 C 80.878906 -71.21875 77.710938 -66.921875 73.734375 -62.484375 C 69.765625 -58.054688 65.609375 -53.8125 61.265625 -49.75 C 56.929688 -45.6875 52.957031 -42.117188 49.34375 -39.046875 L 40.671875 -31.71875 C 40.671875 -30.269531 40.757812 -29.367188 40.9375 -29.015625 C 41.84375 -27.203125 43.648438 -26.296875 46.359375 -26.296875 C 49.429688 -26.296875 53.675781 -27.648438 59.09375 -30.359375 C 64.519531 -33.078125 71.300781 -38.050781 79.4375 -45.28125 Z M 84.3125 -87.5625 C 82.320312 -89.195312 79.113281 -89.195312 74.6875 -87.5625 C 70.257812 -85.9375 65.289062 -83.453125 59.78125 -80.109375 C 54.269531 -76.765625 48.800781 -73.101562 43.375 -69.125 C 37.957031 -65.15625 33.164062 -61.5 29 -58.15625 C 24.84375 -54.8125 22.046875 -52.414062 20.609375 -50.96875 C 15.546875 -46.445312 10.300781 -41.519531 4.875 -36.1875 C -0.539062 -30.863281 -5.328125 -25.304688 -9.484375 -19.515625 C -10.566406 -17.890625 -11.695312 -15.859375 -12.875 -13.421875 C -14.050781 -10.984375 -14.457031 -8.8125 -14.09375 -6.90625 C -13.738281 -5.007812 -11.84375 -4.15625 -8.40625 -4.34375 C -6.050781 -4.519531 -2.976562 -5.507812 0.8125 -7.3125 C 7.132812 -9.84375 13.59375 -13.410156 20.1875 -18.015625 C 26.789062 -22.628906 33.078125 -27.195312 39.046875 -31.71875 C 39.046875 -34.425781 39.992188 -36.863281 41.890625 -39.03125 C 43.785156 -41.207031 46.175781 -43.0625 49.0625 -44.59375 C 51.957031 -46.132812 54.582031 -47.082031 56.9375 -47.4375 L 56.9375 -46.90625 C 61.632812 -51.238281 66.285156 -56.023438 70.890625 -61.265625 C 75.503906 -66.515625 79.253906 -71.488281 82.140625 -76.1875 C 83.773438 -78.71875 84.816406 -81.019531 85.265625 -83.09375 C 85.710938 -85.175781 85.394531 -86.664062 84.3125 -87.5625 Z M 84.3125 -87.5625 "/></g></g></g><g fill="#3d1900" fill-opacity="1"><g transform="translate(576.307714, 422.470985)"><g><path d="M 132.03125 -45.28125 L 132.84375 -44.1875 C 125.613281 -37.6875 117.84375 -30.957031 109.53125 -24 C 101.21875 -17.039062 92.8125 -10.9375 84.3125 -5.6875 C 81.601562 -4.0625 78.394531 -2.570312 74.6875 -1.21875 C 70.988281 0.132812 67.601562 0.453125 64.53125 -0.265625 C 59.46875 -1.710938 57.207031 -5.238281 57.75 -10.84375 C 58.289062 -14.457031 60.050781 -18.660156 63.03125 -23.453125 C 66.007812 -28.242188 70.664062 -33.441406 77 -39.046875 L 106.8125 -66.421875 C 110.613281 -70.035156 113.503906 -73.285156 115.484375 -76.171875 C 117.472656 -79.066406 118.648438 -81.507812 119.015625 -83.5 C 119.378906 -87.113281 118.023438 -89.007812 114.953125 -89.1875 C 111.335938 -90.09375 106.1875 -88.378906 99.5 -84.046875 C 93.175781 -80.242188 86.804688 -75.859375 80.390625 -70.890625 C 73.972656 -65.921875 67.78125 -60.90625 61.8125 -55.84375 C 60.1875 -54.039062 58.421875 -52.144531 56.515625 -50.15625 C 54.617188 -48.164062 52.585938 -46.175781 50.421875 -44.1875 L 2.171875 -0.265625 L -13.5625 -0.265625 L 45.28125 -53.671875 C 52.863281 -60.546875 58.734375 -66.507812 62.890625 -71.5625 C 67.054688 -76.625 69.679688 -80.691406 70.765625 -83.765625 C 71.484375 -86.484375 71.253906 -88.25 70.078125 -89.0625 C 68.898438 -89.875 67.050781 -90.097656 64.53125 -89.734375 C 60.726562 -88.828125 55.4375 -86.382812 48.65625 -82.40625 C 41.882812 -78.4375 33.976562 -72.566406 24.9375 -64.796875 L 0.8125 -44.1875 L 0 -45.28125 L 24.125 -65.875 C 27.195312 -68.40625 31.265625 -71.566406 36.328125 -75.359375 C 41.390625 -79.160156 46.765625 -82.640625 52.453125 -85.796875 C 58.148438 -88.960938 63.164062 -90.726562 67.5 -91.09375 C 71.113281 -91.457031 73.597656 -90.6875 74.953125 -88.78125 C 76.316406 -86.882812 76.726562 -84.128906 76.1875 -80.515625 C 75.101562 -75.097656 71.664062 -68.503906 65.875 -60.734375 C 71.113281 -65.242188 76.535156 -69.625 82.140625 -73.875 C 87.742188 -78.125 93.347656 -81.96875 98.953125 -85.40625 C 101.660156 -87.03125 104.773438 -88.519531 108.296875 -89.875 C 111.828125 -91.226562 115.21875 -91.546875 118.46875 -90.828125 C 123.53125 -89.378906 125.882812 -85.851562 125.53125 -80.25 C 124.976562 -76.8125 123.210938 -72.695312 120.234375 -67.90625 C 117.253906 -63.125 112.507812 -57.835938 106 -52.046875 L 76.1875 -24.671875 C 68.769531 -17.617188 64.789062 -11.925781 64.25 -7.59375 C 63.707031 -4.34375 65.0625 -2.441406 68.3125 -1.890625 C 72.113281 -1.347656 77.175781 -2.976562 83.5 -6.78125 C 92 -12.019531 100.40625 -18.070312 108.71875 -24.9375 C 117.03125 -31.8125 124.800781 -38.59375 132.03125 -45.28125 Z M 132.03125 -45.28125 "/></g></g></g><g fill="#3d1900" fill-opacity="1"><g transform="translate(701.288536, 422.470985)"><g><path d="M 103.5625 -45.28125 L 104.375 -44.1875 C 97.144531 -37.6875 89.328125 -30.957031 80.921875 -24 C 72.515625 -17.039062 64.066406 -10.9375 55.578125 -5.6875 C 52.867188 -4.0625 49.707031 -2.570312 46.09375 -1.21875 C 42.476562 0.132812 39.132812 0.453125 36.0625 -0.265625 C 31 -1.710938 28.648438 -5.238281 29.015625 -10.84375 C 29.367188 -13.738281 30.582031 -17.082031 32.65625 -20.875 C 34.738281 -24.664062 38.039062 -28.820312 42.5625 -33.34375 C 36.414062 -28.28125 29.679688 -23.21875 22.359375 -18.15625 C 15.046875 -13.101562 7.953125 -9.128906 1.078125 -6.234375 C -1.085938 -5.148438 -3.34375 -4.425781 -5.6875 -4.0625 C -11.65625 -2.257812 -15.90625 -2.578125 -18.4375 -5.015625 C -20.96875 -7.453125 -21.148438 -11.742188 -18.984375 -17.890625 C -17.890625 -20.597656 -16.4375 -23.488281 -14.625 -26.5625 C -12.820312 -29.632812 -10.660156 -32.800781 -8.140625 -36.0625 C -5.066406 -39.675781 -1.769531 -43.425781 1.75 -47.3125 C 5.28125 -51.195312 9.125 -54.945312 13.28125 -58.5625 C 16.351562 -61.269531 20.328125 -64.382812 25.203125 -67.90625 C 30.085938 -71.4375 35.375 -74.875 41.0625 -78.21875 C 46.757812 -81.5625 52.410156 -84.40625 58.015625 -86.75 C 63.617188 -89.101562 68.769531 -90.503906 73.46875 -90.953125 C 78.164062 -91.410156 81.875 -90.460938 84.59375 -88.109375 C 86.03125 -87.023438 86.523438 -85.398438 86.078125 -83.234375 C 85.628906 -81.066406 84.585938 -78.445312 82.953125 -75.375 C 81.148438 -72.476562 79.023438 -69.445312 76.578125 -66.28125 C 74.140625 -63.125 71.382812 -60.007812 68.3125 -56.9375 L 195.734375 -172.421875 L 210.375 -172.421875 L 47.71875 -24.671875 C 43.914062 -21.054688 41.019531 -17.800781 39.03125 -14.90625 C 37.050781 -12.019531 35.878906 -9.582031 35.515625 -7.59375 C 35.148438 -4.34375 36.503906 -2.441406 39.578125 -1.890625 C 43.191406 -1.347656 48.34375 -2.976562 55.03125 -6.78125 C 63.53125 -12.019531 71.9375 -18.070312 80.25 -24.9375 C 88.5625 -31.8125 96.332031 -38.59375 103.5625 -45.28125 Z M 83.765625 -87.5625 C 81.960938 -89.195312 78.847656 -89.195312 74.421875 -87.5625 C 69.992188 -85.9375 65.019531 -83.453125 59.5 -80.109375 C 53.988281 -76.765625 48.519531 -73.101562 43.09375 -69.125 C 37.675781 -65.15625 32.890625 -61.5 28.734375 -58.15625 C 24.578125 -54.8125 21.773438 -52.414062 20.328125 -50.96875 C 15.265625 -46.445312 9.976562 -41.519531 4.46875 -36.1875 C -1.039062 -30.863281 -5.691406 -25.304688 -9.484375 -19.515625 C -10.566406 -17.890625 -11.695312 -15.859375 -12.875 -13.421875 C -14.050781 -10.984375 -14.457031 -8.8125 -14.09375 -6.90625 C -13.738281 -5.007812 -11.84375 -4.15625 -8.40625 -4.34375 C -6.238281 -4.519531 -3.253906 -5.507812 0.546875 -7.3125 C 8.671875 -10.75 17.023438 -15.582031 25.609375 -21.8125 C 34.203125 -28.050781 41.84375 -33.972656 48.53125 -39.578125 C 52.144531 -42.648438 56.070312 -46.265625 60.3125 -50.421875 C 64.5625 -54.578125 68.628906 -58.867188 72.515625 -63.296875 C 76.398438 -67.734375 79.519531 -72.03125 81.875 -76.1875 C 85.488281 -81.789062 86.117188 -85.582031 83.765625 -87.5625 Z M 83.765625 -87.5625 "/></g></g></g><g fill="#3d1900" fill-opacity="1"><g transform="translate(797.803019, 422.470985)"><g><path d="M 70.21875 -65.34375 C 66.238281 -62.8125 62.035156 -60.726562 57.609375 -59.09375 C 53.179688 -57.46875 49.023438 -56.472656 45.140625 -56.109375 C 41.253906 -55.753906 38.269531 -56.117188 36.1875 -57.203125 C 34.113281 -58.285156 33.4375 -60.273438 34.15625 -63.171875 C 30.90625 -60.460938 27.742188 -57.707031 24.671875 -54.90625 C 21.597656 -52.101562 18.523438 -49.253906 15.453125 -46.359375 C 9.847656 -40.753906 5.101562 -35.332031 1.21875 -30.09375 C -2.664062 -24.851562 -5.332031 -20.15625 -6.78125 -16 C -8.226562 -12.195312 -8.316406 -9.253906 -7.046875 -7.171875 C -5.785156 -5.097656 -2.894531 -4.425781 1.625 -5.15625 C 6.6875 -6.050781 12.15625 -7.898438 18.03125 -10.703125 C 23.90625 -13.503906 29.820312 -16.9375 35.78125 -21 C 41.75 -25.070312 47.351562 -29.234375 52.59375 -33.484375 C 57.832031 -37.734375 62.351562 -41.664062 66.15625 -45.28125 L 66.96875 -44.1875 C 63.164062 -40.757812 58.644531 -36.921875 53.40625 -32.671875 C 48.164062 -28.421875 42.515625 -24.21875 36.453125 -20.0625 C 30.398438 -15.90625 24.390625 -12.378906 18.421875 -9.484375 C 12.460938 -6.597656 6.953125 -4.789062 1.890625 -4.0625 C -4.609375 -2.976562 -9.300781 -3.878906 -12.1875 -6.765625 C -15.082031 -9.660156 -15.8125 -14.179688 -14.375 -20.328125 C -13.28125 -25.023438 -10.972656 -30.085938 -7.453125 -35.515625 C -3.929688 -40.941406 0.445312 -46.179688 5.6875 -51.234375 C 13.101562 -58.460938 21.78125 -65.421875 31.71875 -72.109375 C 41.65625 -78.796875 51.414062 -83.945312 61 -87.5625 C 62.800781 -88.101562 65.238281 -88.828125 68.3125 -89.734375 C 71.382812 -90.640625 74.457031 -91.09375 77.53125 -91.09375 C 80.601562 -91.09375 82.863281 -90.097656 84.3125 -88.109375 C 85.757812 -86.117188 85.894531 -83.722656 84.71875 -80.921875 C 83.539062 -78.117188 81.640625 -75.316406 79.015625 -72.515625 C 76.398438 -69.710938 73.46875 -67.320312 70.21875 -65.34375 Z M 83.765625 -87.5625 C 82.328125 -89.375 79.976562 -89.914062 76.71875 -89.1875 C 73.46875 -88.46875 69.941406 -87.066406 66.140625 -84.984375 C 62.347656 -82.910156 58.867188 -80.832031 55.703125 -78.75 C 52.546875 -76.675781 50.335938 -75.1875 49.078125 -74.28125 C 46.898438 -72.832031 44.726562 -71.296875 42.5625 -69.671875 C 40.394531 -68.046875 38.226562 -66.421875 36.0625 -64.796875 C 34.789062 -61.359375 35.828125 -59.367188 39.171875 -58.828125 C 42.515625 -58.285156 46.988281 -58.914062 52.59375 -60.71875 C 58.195312 -62.53125 63.53125 -65.15625 68.59375 -68.59375 C 71.664062 -70.394531 74.507812 -72.515625 77.125 -74.953125 C 79.75 -77.398438 81.738281 -79.796875 83.09375 -82.140625 C 84.445312 -84.492188 84.671875 -86.300781 83.765625 -87.5625 Z M 83.765625 -87.5625 "/></g></g></g><g fill="#3d1900" fill-opacity="1"><g transform="translate(856.904599, 422.470985)"><g><path d="M 72.109375 -45.28125 L 72.921875 -44.1875 C 67.328125 -39.125 61.410156 -34.195312 55.171875 -29.40625 C 48.929688 -24.625 43.101562 -20.242188 37.6875 -16.265625 C 35.332031 -14.640625 32.4375 -12.695312 29 -10.4375 C 25.570312 -8.175781 22.003906 -6.234375 18.296875 -4.609375 C 14.585938 -2.984375 11.203125 -2.171875 8.140625 -2.171875 C 3.429688 -2.171875 0.398438 -3.707031 -0.953125 -6.78125 C -2.304688 -9.851562 -2.171875 -13.375 -0.546875 -17.34375 C 0.535156 -20.414062 2.613281 -23.894531 5.6875 -27.78125 C 8.757812 -31.675781 13.097656 -36.148438 18.703125 -41.203125 C 24.128906 -46.085938 28.601562 -50.289062 32.125 -53.8125 C 35.644531 -57.34375 38.488281 -60.820312 40.65625 -64.25 C 42.832031 -67.6875 44.550781 -71.707031 45.8125 -76.3125 C 47.082031 -80.925781 48.171875 -86.847656 49.078125 -94.078125 C 44.910156 -89.191406 39.976562 -83.539062 34.28125 -77.125 C 28.59375 -70.707031 22.8125 -64.5625 16.9375 -58.6875 C 11.070312 -52.820312 5.695312 -47.988281 0.8125 -44.1875 L 0 -45.28125 C 4.875 -49.070312 10.335938 -53.945312 16.390625 -59.90625 C 22.453125 -65.875 28.421875 -72.15625 34.296875 -78.75 C 40.171875 -85.351562 45.1875 -91.1875 49.34375 -96.25 C 49.519531 -97.332031 49.65625 -98.414062 49.75 -99.5 C 49.84375 -100.582031 49.976562 -101.664062 50.15625 -102.75 C 50.875 -107.632812 52.179688 -111.160156 54.078125 -113.328125 C 55.984375 -115.492188 57.613281 -116.347656 58.96875 -115.890625 C 60.320312 -115.441406 60.5 -113.59375 59.5 -110.34375 C 58.507812 -107.09375 55.484375 -102.300781 50.421875 -95.96875 C 49.878906 -88.382812 49.609375 -82.101562 49.609375 -77.125 C 49.609375 -72.15625 49.203125 -67.679688 48.390625 -63.703125 C 47.578125 -59.734375 45.632812 -55.625 42.5625 -51.375 C 39.488281 -47.125 34.609375 -41.925781 27.921875 -35.78125 C 22.140625 -30.539062 17.578125 -26.113281 14.234375 -22.5 C 10.890625 -18.882812 8.40625 -15.90625 6.78125 -13.5625 C 5.507812 -11.207031 4.785156 -9.125 4.609375 -7.3125 C 4.429688 -5.507812 6.054688 -4.609375 9.484375 -4.609375 C 13.097656 -4.609375 17.253906 -5.78125 21.953125 -8.125 C 26.660156 -10.476562 31.8125 -13.550781 37.40625 -17.34375 C 42.65625 -21.320312 48.347656 -25.796875 54.484375 -30.765625 C 60.628906 -35.734375 66.503906 -40.570312 72.109375 -45.28125 Z M 72.109375 -45.28125 "/></g></g></g></g></g></svg>